<?xml version="1.0" encoding="utf-8"?>
<!-- Generator: Adobe Illustrator 20.0.0, SVG Export Plug-In . SVG Version: 6.00 Build 0)  -->
<svg version="1.1" id="atom" xmlns="http://www.w3.org/2000/svg" xmlns:xlink="http://www.w3.org/1999/xlink" x="0px" y="0px"
	 viewBox="0 0 64.7 54.2" style="enable-background:new 0 0 64.7 54.2;" xml:space="preserve">
<style type="text/css">
	.st0{fill:#FFFFFF;}
	.st1{fill:#FFAB00;}
	.st2{fill:#AEBCC4;}
	.st3{fill:none;stroke:#43525B;stroke-width:2;stroke-linecap:round;stroke-linejoin:round;stroke-miterlimit:10;}
	.st4{fill:#EBEEF0;stroke:#43525B;stroke-width:2;stroke-linecap:round;stroke-linejoin:round;stroke-miterlimit:10;}
	.st5{fill:none;stroke:#FFFFFC;stroke-width:2;stroke-linecap:round;stroke-linejoin:round;stroke-miterlimit:10;}
	.st6{fill:#EBEEF0;stroke:#FFFFFC;stroke-width:2;stroke-linecap:round;stroke-linejoin:round;stroke-miterlimit:10;}
</style>
<g id="molecule_1_">
	<circle id="label_18_" class="st0" cx="463.9" cy="893.5" r="40"/>
	<g id="molecule">
		<g id="fill_22_">
			<circle class="st1" cx="463.9" cy="893.5" r="10.2"/>
			<circle class="st1" cx="483.4" cy="882.8" r="3.9"/>
			<circle class="st1" cx="444.4" cy="882.8" r="3.9"/>
			<circle class="st2" cx="444.4" cy="904.2" r="3.9"/>
			<circle class="st2" cx="463.9" cy="873.7" r="3.9"/>
			<circle class="st0" cx="463.9" cy="893.5" r="3.9"/>
			<circle class="st1" cx="463.9" cy="913.3" r="3.9"/>
			<circle class="st2" cx="482.8" cy="904.2" r="3.9"/>
		</g>
		<g id="line_23_">
			<path class="st3" d="M448.4,884.9l30.2,17.1 M479.5,884.9l-31.1,18 M463.9,878.5v30.8"/>
			<circle class="st3" cx="483.4" cy="882.8" r="3.9"/>
			<circle class="st3" cx="444.4" cy="882.8" r="3.9"/>
			<circle class="st3" cx="444.4" cy="904.2" r="3.9"/>
			<circle class="st3" cx="463.9" cy="873.7" r="3.9"/>
			<circle class="st4" cx="463.9" cy="893.5" r="3.9"/>
			<circle class="st3" cx="463.9" cy="913.3" r="3.9"/>
			<circle class="st3" cx="482.8" cy="904.2" r="3.9"/>
		</g>
	</g>
</g>
<g id="molecule_4_">
	<circle id="label_2_" class="st0" cx="660.9" cy="178.5" r="40"/>
	<g id="molecule_5_">
		<g id="fill_2_">
			<circle class="st1" cx="660.9" cy="178.5" r="10.2"/>
			<circle class="st1" cx="680.4" cy="167.8" r="3.9"/>
			<circle class="st1" cx="641.4" cy="167.8" r="3.9"/>
			<circle class="st2" cx="641.4" cy="189.2" r="3.9"/>
			<circle class="st2" cx="660.9" cy="158.7" r="3.9"/>
			<circle class="st0" cx="660.9" cy="178.5" r="3.9"/>
			<circle class="st1" cx="660.9" cy="198.3" r="3.9"/>
			<circle class="st2" cx="679.8" cy="189.2" r="3.9"/>
		</g>
		<g id="line_2_">
			<path class="st3" d="M645.4,169.9l30.2,17.1 M676.5,169.9l-31.1,18 M660.9,163.5v30.8"/>
			<circle class="st3" cx="680.4" cy="167.8" r="3.9"/>
			<circle class="st3" cx="641.4" cy="167.8" r="3.9"/>
			<circle class="st3" cx="641.4" cy="189.2" r="3.9"/>
			<circle class="st3" cx="660.9" cy="158.7" r="3.9"/>
			<circle class="st4" cx="660.9" cy="178.5" r="3.9"/>
			<circle class="st3" cx="660.9" cy="198.3" r="3.9"/>
			<circle class="st3" cx="679.8" cy="189.2" r="3.9"/>
		</g>
	</g>
</g>
<g id="molecule_2_">
	<g id="molecule_3_">
		<g id="fill_1_">
			<circle class="st1" cx="31.4" cy="27.1" r="10.2"/>
			<circle class="st1" cx="50.9" cy="16.3" r="3.9"/>
			<circle class="st1" cx="11.9" cy="16.3" r="3.9"/>
			<circle class="st2" cx="11.9" cy="37.8" r="3.9"/>
			<circle class="st2" cx="31.4" cy="7.3" r="3.9"/>
			<circle class="st0" cx="31.4" cy="27.1" r="3.9"/>
			<circle class="st1" cx="31.4" cy="46.9" r="3.9"/>
			<circle class="st2" cx="50.3" cy="37.8" r="3.9"/>
		</g>
		<g id="line_1_">
			<path class="st5" d="M15.8,18.5l30.3,17.1 M46.9,18.5l-31.1,18 M31.4,12.1v30.7"/>
			<circle class="st5" cx="50.9" cy="16.3" r="3.9"/>
			<circle class="st5" cx="11.9" cy="16.3" r="3.9"/>
			<circle class="st5" cx="11.9" cy="37.8" r="3.9"/>
			<circle class="st5" cx="31.4" cy="7.3" r="3.9"/>
			<circle class="st6" cx="31.4" cy="27.1" r="3.9"/>
			<circle class="st5" cx="31.4" cy="46.9" r="3.9"/>
			<circle class="st5" cx="50.3" cy="37.8" r="3.9"/>
		</g>
	</g>
</g>
</svg>
